<?xml version="1.0" encoding="utf-8"?>
<!-- Generator: Adobe Illustrator 22.0.0, SVG Export Plug-In . SVG Version: 6.00 Build 0)  -->
<svg version="1.1" id="Layer_1" xmlns="http://www.w3.org/2000/svg" xmlns:xlink="http://www.w3.org/1999/xlink" x="0px" y="0px"
	 viewBox="0 0 99 52" style="enable-background:new 0 0 99 52;" xml:space="preserve">
<style type="text/css">
	.st0{fill-rule:evenodd;clip-rule:evenodd;fill:#FFFFFF;}
</style>
<g>
	<path class="st0" d="M1.1,27.4h1c0.4-1,0.8-2,1.2-2.9c0.6-0.1,1.4-0.1,2,0c0.3,1,0.6,1.9,1,2.9h1.4c-0.9-2.8-1.9-5.5-2.9-8.2
		c-0.4,0.3-0.7,0.5-1,0.8c0,0.1,0.1,0.2,0.1,0.4C3,22.7,2.1,25.1,1.1,27.4 M4.3,21.7c0.4,0.6,0.5,1.3,0.8,2H3.6
		C3.9,22.9,4.1,22.3,4.3,21.7"/>
	<path class="st0" d="M40.5,27.4c0.4-1,0.8-2,1.2-2.9c0.6-0.1,1.4-0.1,2,0c0.3,1,0.6,1.9,0.9,2.9h1.5c-1-2.7-1.9-5.5-2.9-8.2
		c-0.3,0.3-0.7,0.5-1,0.8c0,0.2,0.1,0.2,0.1,0.4c-1,2.3-1.9,4.6-2.8,7H40.5z M42.7,21.6c0.3,0.6,0.5,1.3,0.7,2H42
		C42.2,22.9,42.5,22.3,42.7,21.6"/>
	<path class="st0" d="M52,25.4c0.1-1.1-0.5-2.2-1.4-2.4c1-0.6,1.1-2.1,0.4-2.9c-0.9-0.8-2.8-0.7-4.2-0.6v7.8
		C49.1,27.6,51.8,27.5,52,25.4 M48.1,20.3c0.8-0.1,1.5,0.1,1.8,0.6c0.6,1.1-0.4,2.1-1.8,1.9C48.1,22,48,21,48.1,20.3 M48.1,23.6
		c0.7-0.1,1.7,0.1,2,0.5c0.8,0.9,0.3,2.4-0.9,2.5c-0.2,0-0.8,0-1-0.2C47.7,25.9,48.2,24.6,48.1,23.6"/>
	<path class="st0" d="M13.7,24.9c0-1-0.6-1.7-1.4-2c0.9-0.5,1.1-2,0.4-2.8c-0.8-0.9-2.7-0.8-4.3-0.7v7.8
		C11,27.7,13.7,27.3,13.7,24.9 M9.7,20.3c0.7-0.1,1.3,0,1.6,0.4c0.4,0.4,0.4,1.3,0.1,1.7c-0.4,0.4-1,0.4-1.7,0.4
		C9.7,22,9.6,21,9.7,20.3 M9.7,23.6c1.4-0.4,3,0.9,2.3,2.4c-0.2,0.4-1.3,1.1-2,0.5C9.4,26.1,9.7,24.5,9.7,23.6"/>
	<path class="st0" d="M19.8,26.7c1.4-1.3,0.7-4.6,0.9-7.3h-0.9c-0.2,2.6,0.7,6.4-1.3,7.1c-0.8,0.3-1.7,0-2.1-0.4
		c-1.2-1.2-0.4-4.6-0.6-6.7h-1.3c0,0,0,0.1,0,0.1c0.2,2.7-0.6,6.4,1.3,7.5C16.8,27.8,18.9,27.6,19.8,26.7"/>
	<path class="st0" d="M31.5,23c-0.2-3.4-3.2-3.8-7-3.5c-0.1,2.5,0,5.2,0,7.8c2,0.1,3.9,0.3,5.1-0.5C30.8,26.1,31.6,24.6,31.5,23
		 M27.4,26.6c-0.4,0-1.2,0.1-1.5-0.2c-0.4-0.4-0.3-2.1-0.3-2.9v-3.2c2.3-0.5,4.1,0.6,4.2,2.8C30,24.9,29.2,26.4,27.4,26.6"/>
	<path class="st0" d="M33.7,23.7c1.3,0,2.6-0.1,3.8,0c0.1,1.1,0,2.4,0,3.6h1.3v-7.9h-1.3c-0.1,1.1,0.1,2.4-0.1,3.3
		c-1.3,0-2.6,0.1-3.8,0v-3.3h-1.4v7.9h1.4C33.7,26.2,33.6,24.8,33.7,23.7"/>
	<path class="st0" d="M52.9,27.4h1.3v-7.9h-1.3C52.8,22,52.9,24.8,52.9,27.4"/>
	<path class="st0" d="M93.1,21.5C93.1,21.5,93.1,21.5,93.1,21.5C93,21.5,93,21.4,93.1,21.5c-0.6,0.6-1.2,1.3-1.7,2
		c0.4,0.9,0.7,2,1.1,3c0.4,1,0.9,2,1,3.2c0.1,1.7-0.4,2.9-1.1,3.6c0.1-3.4-1.5-5.4-2.2-8.1c-0.8,0.8-1.5,1.9-2.3,2.9
		c-0.8,1-1.6,2.2-1.7,3.5c-0.2,2.4,1.4,3.9,3.8,3.8c0.4-0.2,0.6-0.9,0.9-1c0.5,3.8-3.8,5.3-6.2,3.1c-0.5,0.8-1.1,1.4-1.6,2.2
		c0.7,0.5,1.5,0.9,2.5,0.9c1.9,0,3.2-1,4.2-2.1c0.8-0.9,1.5-1.7,2-2.8c0.2-0.4,0.3-0.8,0.5-1.1c0.2-0.4,0.6-0.8,1-1.2
		c0.9-1.2,2.2-2.6,2.3-4.3c0.1-1.6-0.6-2.9-1-4.2C93.9,23.8,93.5,22.6,93.1,21.5 M88.6,28c0.7,1.8,1.4,3.7,2,5.6
		C87.9,33.6,87.1,29.9,88.6,28"/>
	<path class="st0" d="M13.3,29.2c-0.4,1.3-0.9,2.3-1.5,3.3c-1.3,2.6-2.5,5.2-3.8,7.6c-1.6-3.7-3.3-7.3-4.9-11c-0.5,0-1.4,0-2,0
		C0.8,34.1,0.5,39,0.2,43.9h1.6c0.2-3.5,0.4-7,0.6-10.3c1.1,2.7,2.4,5.3,3.6,8.1c0.2,0.5,0.8,2.5,1.5,2.4c0.4,0,0.6-0.7,0.8-1.1
		c1.5-3.2,3.1-6.4,4.6-9.3c0,3.4,0,6.8-0.1,10.2h2.5c0-4.9-0.1-9.8-0.2-14.6H13.3z"/>
	<path class="st0" d="M19.5,42c-0.5-0.5-0.3-1.5-0.3-2.3c0-1,0-1.9,0-2.6c1.5-0.1,3.2,0,4.8,0v-1.5c-1.6-0.1-3.4,0.1-4.8-0.1
		c0-1.6-0.1-3.3,0-4.8c2.2-0.1,4.5,0,6.8,0v-1.5h-9.2c0,0,0,0.1,0,0.1v14.5h9.3v-1.5h-3.5C21.6,42.4,20.1,42.5,19.5,42"/>
	<path class="st0" d="M79.5,33.8c0.4-0.7,0.9-1.3,1.4-2c-0.6-0.3-1.2-0.7-1.8-1.1c-0.4,0.7-1,1.3-1.4,2.1
		C78.4,33,78.9,33.5,79.5,33.8"/>
	<path class="st0" d="M93.6,35c0.6,0.3,1.1,0.7,1.8,1.1c0.4-0.7,0.9-1.3,1.4-2c-0.6-0.4-1.1-0.8-1.8-1.1C94.5,33.7,94,34.3,93.6,35"
		/>
	<path class="st0" d="M68.3,46.8c0.6,0.4,1.1,0.7,1.7,1.1c0.4-0.7,1-1.3,1.4-2.1c-0.6-0.3-1.1-0.7-1.7-1
		C69.2,45.5,68.7,46.1,68.3,46.8"/>
	<path class="st0" d="M87.8,45.8c-0.6-0.3-1.1-0.8-1.8-1c-0.4,0.7-0.9,1.3-1.4,2c0.6,0.3,1.2,0.7,1.7,1.1c-0.4,0.7-1,1.3-1.3,2
		c0.6,0.3,1.1,0.7,1.7,1c0.5-0.7,1-1.3,1.4-2c-0.6-0.4-1.2-0.7-1.7-1.1C86.9,47.2,87.4,46.5,87.8,45.8"/>
	<path class="st0" d="M78.3,10.9c1.8,5,3.6,9.9,5.4,14.9c0.4,1.1,0.8,2.1,0.8,3.2c0,1.6-0.7,2.4-1.3,3.3c-0.4,0.5-0.9,0.9-0.4,1.5
		c1.1-1.3,2.1-2.7,3.3-4.2c1.1-1.5,2.7-3.1,3.2-5.2c1-1.7,3-2.9,2.8-5.6c-0.1-1.9-1.1-3.5-1.7-5.3c-0.6-1.9-0.8-4,0-6.1
		c-1,1.2-2.2,2.3-2.3,4.3c-0.1,1.5,0.4,3,0.9,4.4c0.2,0.7,0.4,1.3,0.7,2c0.2,0.7,0.5,1.4,0.6,2.1c0.1,1.4-0.3,2.5-0.9,3.3
		c-0.4-2.4-1.3-4.4-2-6.6c-1-2.7-2.5-6.4-1.3-9.5c-1.1,1.5-2.4,2.6-2.3,5.2c0.2,2.1,1.1,4.2,1.8,6.2c0.3,1,0.7,1.9,1.1,2.9
		c0.4,1,0.8,2.1,0.9,3.1c0.1,1.2-0.3,2.7-1.2,3.5c0.2-1.6-0.3-3-0.8-4.4c-2-5.6-3.9-10.8-5.9-16.3c-0.8-2.1-1.5-4.8-0.5-7.4
		c-0.9,1.2-2.2,2.3-2.3,4.4c0,1.2,0.3,2.4,0.6,3.4C77.5,8.9,77.9,10,78.3,10.9"/>
	<path class="st0" d="M65.3,41.8c-2.5,0-4.1-1.1-4.9-3c-0.2-0.6-0.6-1.4-0.7-2c-0.1-1.1,0.6-1.8,1.1-2.3c0.5,1.4,0.9,2.9,1.6,4.1
		c-0.3,0.5-0.8,0.8-0.4,1.5c0.3-0.2,0.5-0.7,0.9-1c1.1,1.1,3.2,1.1,5.4,1c0.2-0.2,0.4-0.4,0.7-0.8c0.1-0.2,0.5-0.8,0.6-0.8
		c0.1,0,0.2,0.4,0.3,0.4c1.4,1.5,3.9,1.2,6.8,1.2c1.3,0,2.7,0.1,3.8,0c2.4-0.2,3.2-2.6,4.5-4c-0.4-0.7-0.8-1.6-1.8-1.7
		c-1.4-0.2-3.4,0-5.2,0h-5.3c0.7-1.2,1.8-2.2,1.7-4.2h7.8c0.4-0.4,0.8-1.1,1.2-1.6c0.1-0.2,0.4-0.3,0.3-0.5
		c-3.2,0.2-5.8-0.1-6.4-2.4c1.3,0,2.8-0.2,2.9,0.9c0.6-0.7,1.1-1.4,1.7-2.1c-0.5-1.5-3.8-0.6-5.6-0.9c-0.3,0.3-0.5,0.6-0.8,1
		c-0.2,0.3-0.7,0.8-0.8,1.1c0,0.4,0.4,0.9,0.6,1.3c0.3,0.4,0.5,0.8,0.8,1h-2.1c-0.9-2.8-1.9-5.5-2.9-8.2c0.6-0.8,1.1-1.8,1.7-2.4
		c-0.1,2.6,1.1,4.4,3.7,4.5c1-1.3,2.4-2.3,2.2-4.5c-0.1-0.6-0.3-1.2-0.5-1.8c-0.6-1.7-1.2-3.5-1.8-5c-1.6,2.3-3.3,4.8-4.9,7.1
		c-0.2,0.3-0.5,0.7-0.8,0.9c-1-3.2-3.3-7-1.9-11.2c0,0,0,0,0,0c-1.1,1.5-2.4,2.6-2.3,5.2c0.2,3.1,1.9,5.7,2.6,8.3
		c-0.5,0.5-0.8,1.2-1.4,1.6c-0.7-2-1.4-4.1-2.2-6.2c-0.9-2.5-2.3-5.9-1.1-8.8c-0.1-0.2-0.1,0.1-0.1,0.1c-0.9,1.1-2,2.3-2.2,4.1
		c-0.1,1.2,0.3,2.5,0.6,3.6c1,3.2,2.3,6.4,3.3,9.4c-0.4,0.5-0.9,1.2-1.3,1.6c-0.8-2.2-1.7-4.5-2.5-6.8c-0.6,0.5-1.3,0.9-1.9,1.5
		c0.9,2.4,1.8,4.8,2.6,7.2c-2.5,2.7-5.3,5.1-8.7,6.9c-0.7-2.2-1.5-4.3-2.3-6.4c-0.6,0.5-1.3,0.9-1.8,1.5c0.3,0.6,0.1,0.9-0.2,1.5
		c-0.8,2-1.7,4.2-2.5,6.1c-1,0.2-2.1,0.4-3.2,0.5v-9.1h-2.3v9.3c-0.6,0-1.1,0.1-1.7,0c0.1-0.3,0.2-0.5,0.2-0.8
		c0.6-3.7-1.1-6.3-3.2-7.6c-2.5-1.4-6.2-1-9.8-1v14.6c2.7,0,5.3,0.4,7.6-0.2c2.1-0.5,3.5-1.9,4.5-3.5c0.7,0.2,1.6,0.1,2.3,0.3v3.4
		h2.3v-3.5c0.8-0.1,1.6-0.2,2.3-0.3c-0.5,1.3-1,2.5-1.5,3.8h1.7c0.5-1.4,1.1-2.8,1.6-4.2c1.6-0.4,3.1-0.9,4.5-1.5
		c0.7,1.9,1.3,3.7,2,5.6h2.5c-0.7-2.3-1.6-4.5-2.4-6.7c3.4-1.9,5.8-4.8,8.5-7.5c0.7,1.8,2,4.9,0.5,6.8c-0.6-1.5-1.2-3.1-1.7-4.7
		c-1.3,1.4-2.6,2.8-3.6,4.6c-0.3,0.6-0.8,1.3-0.8,2c0,0.6,0.4,1.2,0.7,1.9c0.3,0.7,0.5,1.3,0.8,1.8c0.7,1,2,1.7,3.3,1.8
		c1.3,0.1,2.7,0,4.1,0h28.6c0.4-0.5,0.8-1.1,1.2-1.6c0.1-0.2,0.3-0.3,0.3-0.5C86.7,41.6,75.5,42,65.3,41.8 M75,13.8
		C75,13.8,75,13.8,75,13.8c0.6,2.2,1.7,3.8,2,6.3C74.6,19.7,73.5,16,75,13.8 M37.4,38.5c-2-0.2-4.3-0.4-6.3-0.8
		c1.6,0.9,3.8,1.5,5.9,2c-0.8,1.8-2.3,2.9-5,2.9c-0.9,0-1.8-0.1-2.1-0.5c-0.4-0.5-0.4-1.6-0.4-2.5c0-2.9,0-6.2,0-8.9
		c0.3-0.2,0.7-0.2,1-0.3C35.7,30.1,38.3,33.4,37.4,38.5 M49.2,37.3c0.6-1.5,1.2-2.9,1.7-4.4c0.5,1,0.8,2.2,1.2,3.3
		C51.2,36.6,50.2,36.9,49.2,37.3 M81.1,36.4c1,0.1,1.8,0.5,2,1.4c-1.5,0.3-3.7,0.2-5.9,0.2c-2.1,0-4.2,0.2-5.4-0.8
		c-0.3-0.2-0.4-0.6-0.7-0.8c0,0,0,0,0,0C74.1,36.6,78.1,36.2,81.1,36.4 M69.3,22.2c0.8,1.8,1.4,3.9,2.2,5.8c-2.3,0-2.8-2.2-3.4-4
		C68.4,23.3,68.9,22.8,69.3,22.2 M66.4,26C66.4,26,66.4,26,66.4,26c0.4,1.4,1.3,2.7,1.1,4.5c-0.1,1.1-0.6,2.1-1.2,2.7
		c0.3-2.3-0.8-3.9-1.3-5.6C65.5,27.1,66,26.6,66.4,26 M69.2,29.9c0.8,0.3,1.9,0.2,3,0.3c0.8,2.1-0.3,4.4-1.3,5.6
		c-0.5-1.3-1-2.6-1.4-3.9c-0.6,0.6-1.1,1.4-1.7,2.1c0.5,1.4,1,2.7,1.5,4.1c-2,0-4,0.2-4.9-1C65.9,34.6,68.1,32.7,69.2,29.9"/>
	<path class="st0" d="M98.3,23.7c-1.1-3.2-2.3-6.2-3.4-9.4c-0.7-2.1-1.2-4.7-0.4-6.9c0,0,0,0,0,0c-0.9,1.4-2.1,2.2-2.3,4
		c-0.2,2.1,0.5,3.5,1.1,5.2c0.9,2.5,1.8,5.1,2.7,7.6c0.6,1.8,1.6,3.7,1,5.8c0.7-0.9,1.7-2.2,1.8-3.5C98.9,25.2,98.6,24.6,98.3,23.7"
		/>
</g>
</svg>
